<?xml version="1.0" encoding="iso-8859-1"?>
<!-- Generator: Adobe Illustrator 16.0.0, SVG Export Plug-In . SVG Version: 6.00 Build 0)  -->
<!DOCTYPE svg PUBLIC "-//W3C//DTD SVG 1.1//EN" "http://www.w3.org/Graphics/SVG/1.1/DTD/svg11.dtd">
<svg version="1.1" id="Capa_1" xmlns="http://www.w3.org/2000/svg" xmlns:xlink="http://www.w3.org/1999/xlink" x="0px" y="0px"
	 width="485.21px" height="485.209px" viewBox="0 0 485.21 485.209" style="enable-background:new 0 0 485.21 485.209;"
	 xml:space="preserve">
<g>
	<path d="M460.834,307.158c2.609-19.719-6.959-39.12-24.194-49.075c-17.235-9.945-38.797-8.526-54.609,3.589
		c2.637-19.725-6.931-39.121-24.166-49.074c-9.833-5.652-20.992-7.255-31.75-5.652l-96.452,167.025
		c42.291,14.211,79.31,42.2,103.92,80.908H0c36.291-57.041,99.194-91.572,166.79-91.572c10.944,0,21.678,1.218,32.282,2.991
		L299.82,191.78c-3.968-10.13-10.926-19.014-20.731-24.67c-17.264-9.948-38.823-8.529-54.626,3.587
		c2.623-19.728-6.928-39.097-24.178-49.075c-17.25-9.95-38.809-8.531-54.612,3.584C193.354,42.639,296.002,11.722,380.724,51.7
		l7.972-13.801c4.172-7.255,13.441-9.712,20.698-5.535c7.257,4.175,9.745,13.446,5.54,20.699l-7.972,13.803
		C483.992,120.231,508.513,224.594,460.834,307.158z"/>
</g>
<g>
</g>
<g>
</g>
<g>
</g>
<g>
</g>
<g>
</g>
<g>
</g>
<g>
</g>
<g>
</g>
<g>
</g>
<g>
</g>
<g>
</g>
<g>
</g>
<g>
</g>
<g>
</g>
<g>
</g>
</svg>
