<?xml version="1.0" encoding="iso-8859-1"?>
<!-- Generator: Adobe Illustrator 16.0.0, SVG Export Plug-In . SVG Version: 6.00 Build 0)  -->
<!DOCTYPE svg PUBLIC "-//W3C//DTD SVG 1.1//EN" "http://www.w3.org/Graphics/SVG/1.1/DTD/svg11.dtd">
<svg version="1.1" id="Capa_1" xmlns="http://www.w3.org/2000/svg" xmlns:xlink="http://www.w3.org/1999/xlink" x="0px" y="0px"
	 width="485.211px" height="485.211px" viewBox="0 0 485.211 485.211" style="enable-background:new 0 0 485.211 485.211;"
	 xml:space="preserve">
<g>
	<path d="M0,481.419h485.211c-73.502-39.208-154.173-59.226-235.025-60.411V195.964c9.208-11.103,23.014-17.8,37.911-17.8
		c19.9,0,37.845,11.966,45.489,30.329c7.641-18.363,25.585-30.329,45.49-30.329c19.896,0,37.841,11.966,45.485,30.329
		c0-97.908-77.445-177.573-174.376-181.573V11.374c0-4.205-3.389-7.582-7.579-7.582c-4.191,0-7.58,3.376-7.58,7.582V26.92
		c-96.944,4-174.376,83.665-174.376,181.573c7.642-18.363,25.589-30.329,45.488-30.329c19.905,0,37.85,11.966,45.49,30.329
		c7.643-18.363,25.587-30.329,45.488-30.329c14.897,0,28.7,6.697,37.911,17.8v225.044C154.163,422.193,73.521,442.211,0,481.419z
		 M250.186,42.352c0,0,57.812,21.676,83.4,139.399c-11.845-11.817-28.049-18.748-45.489-18.748c-14.011,0-27.111,4.62-37.911,12.526
		V42.352z M151.628,181.75c-11.831-11.817-28.044-18.748-45.49-18.748c-8.928,0-17.53,1.806-25.392,5.152
		c17.488-70.128,79.621-122.396,154.28-125.804C169.163,67.643,151.628,181.75,151.628,181.75z"/>
</g>
<g>
</g>
<g>
</g>
<g>
</g>
<g>
</g>
<g>
</g>
<g>
</g>
<g>
</g>
<g>
</g>
<g>
</g>
<g>
</g>
<g>
</g>
<g>
</g>
<g>
</g>
<g>
</g>
<g>
</g>
</svg>
