<?xml version="1.0" encoding="iso-8859-1"?>
<!-- Generator: Adobe Illustrator 16.0.0, SVG Export Plug-In . SVG Version: 6.00 Build 0)  -->
<!DOCTYPE svg PUBLIC "-//W3C//DTD SVG 1.1//EN" "http://www.w3.org/Graphics/SVG/1.1/DTD/svg11.dtd">
<svg version="1.1" id="Capa_1" xmlns="http://www.w3.org/2000/svg" xmlns:xlink="http://www.w3.org/1999/xlink" x="0px" y="0px"
	 width="495.561px" height="495.561px" viewBox="0 0 495.561 495.561" style="enable-background:new 0 0 495.561 495.561;"
	 xml:space="preserve">
<g>
	<path d="M227.792,8.561c10.984-13.75,19.984-10.593,19.984,7v256c0,17.594-14.406,32-32,32h-192c-17.594,0-23-11.25-12.016-25
		L227.792,8.561z M279.776,271.561c0,17.594,14.406,32,32,32h64c17.594,0,26.656-13.375,20.125-29.719L291.651,13.28
		c-6.531-16.344-11.875-15.312-11.875,2.281V271.561z M17.37,399.561h460.813l13.719-34.281
		c6.531-16.344-2.531-29.719-20.125-29.719H23.775c-17.594,0-26.656,13.375-20.109,29.719L17.37,399.561z M30.181,431.561
		l13.703,34.281c6.547,16.344,26.297,29.719,43.891,29.719h320c17.594,0,37.344-13.375,43.875-29.719l13.719-34.281H30.181z"/>
</g>
<g>
</g>
<g>
</g>
<g>
</g>
<g>
</g>
<g>
</g>
<g>
</g>
<g>
</g>
<g>
</g>
<g>
</g>
<g>
</g>
<g>
</g>
<g>
</g>
<g>
</g>
<g>
</g>
<g>
</g>
</svg>
