<?xml version="1.0" encoding="iso-8859-1"?>
<!-- Generator: Adobe Illustrator 16.0.0, SVG Export Plug-In . SVG Version: 6.00 Build 0)  -->
<!DOCTYPE svg PUBLIC "-//W3C//DTD SVG 1.1//EN" "http://www.w3.org/Graphics/SVG/1.1/DTD/svg11.dtd">
<svg version="1.1" id="Capa_1" xmlns="http://www.w3.org/2000/svg" xmlns:xlink="http://www.w3.org/1999/xlink" x="0px" y="0px"
	 width="485.213px" height="485.212px" viewBox="0 0 485.213 485.212" style="enable-background:new 0 0 485.213 485.212;"
	 xml:space="preserve">
<g>
	<path d="M454.89,454.886V181.955H242.607V0H30.328v454.886H0.001v30.326h485.211v-30.326H454.89z M60.652,30.327h60.653v60.651
		H60.652V30.327z M60.652,121.304h60.653v60.651H60.652V121.304z M60.652,212.282h60.653v60.648H60.652V212.282z M60.652,303.257
		h60.653v60.648H60.652V303.257z M181.956,454.886H90.979v-60.649h90.978V454.886z M212.283,363.906h-60.654v-60.648h60.654V363.906
		z M212.283,272.93h-60.654v-60.648h60.654V272.93z M212.283,181.955h-60.654v-60.651h60.654V181.955z M212.283,90.978h-60.654
		V30.327h60.654V90.978z M272.934,212.282h60.653v60.648h-60.653V212.282z M272.934,303.257h60.653v60.648h-60.653V303.257z
		 M394.236,454.886h-90.98v-60.649h90.98V454.886z M424.562,363.906h-60.653v-60.648h60.653V363.906z M424.562,272.93h-60.653
		v-60.648h60.653V272.93z"/>
</g>
<g>
</g>
<g>
</g>
<g>
</g>
<g>
</g>
<g>
</g>
<g>
</g>
<g>
</g>
<g>
</g>
<g>
</g>
<g>
</g>
<g>
</g>
<g>
</g>
<g>
</g>
<g>
</g>
<g>
</g>
</svg>
