<?xml version="1.0" encoding="iso-8859-1"?>
<!-- Generator: Adobe Illustrator 16.0.0, SVG Export Plug-In . SVG Version: 6.00 Build 0)  -->
<!DOCTYPE svg PUBLIC "-//W3C//DTD SVG 1.1//EN" "http://www.w3.org/Graphics/SVG/1.1/DTD/svg11.dtd">
<svg version="1.1" id="Capa_1" xmlns="http://www.w3.org/2000/svg" xmlns:xlink="http://www.w3.org/1999/xlink" x="0px" y="0px"
	 width="485.213px" height="485.212px" viewBox="0 0 485.213 485.212" style="enable-background:new 0 0 485.213 485.212;"
	 xml:space="preserve">
<g>
	<path d="M424.562,424.559c0-16.76-13.567-30.322-30.326-30.322V212.282c16.759,0,30.326-13.564,30.326-30.327h60.649L242.607,0
		L0.001,181.955h60.651c0,16.762,13.565,30.327,30.327,30.327v181.955c-16.762,0-30.327,13.562-30.327,30.322
		c-33.493,0-60.651,27.158-60.651,60.653h485.211C485.212,451.717,458.054,424.559,424.562,424.559z M242.607,60.651
		c25.113,0,45.49,20.376,45.49,45.49c0,25.111-20.377,45.487-45.49,45.487c-25.114,0-45.49-20.376-45.49-45.487
		C197.117,81.027,217.494,60.651,242.607,60.651z M181.956,424.559c0-16.76-13.564-30.322-30.327-30.322V212.282
		c16.764,0,30.327-13.564,30.327-30.327h121.3c0,16.762,13.562,30.327,30.331,30.327v181.955c-16.769,0-30.331,13.562-30.331,30.322
		H181.956z"/>
</g>
<g>
</g>
<g>
</g>
<g>
</g>
<g>
</g>
<g>
</g>
<g>
</g>
<g>
</g>
<g>
</g>
<g>
</g>
<g>
</g>
<g>
</g>
<g>
</g>
<g>
</g>
<g>
</g>
<g>
</g>
</svg>
