<?xml version="1.0" encoding="iso-8859-1"?>
<!-- Generator: Adobe Illustrator 16.0.0, SVG Export Plug-In . SVG Version: 6.00 Build 0)  -->
<!DOCTYPE svg PUBLIC "-//W3C//DTD SVG 1.1//EN" "http://www.w3.org/Graphics/SVG/1.1/DTD/svg11.dtd">
<svg version="1.1" id="Capa_1" xmlns="http://www.w3.org/2000/svg" xmlns:xlink="http://www.w3.org/1999/xlink" x="0px" y="0px"
	 width="485.213px" height="485.212px" viewBox="0 0 485.213 485.212" style="enable-background:new 0 0 485.213 485.212;"
	 xml:space="preserve">
<g>
	<path d="M303.256,181.955V60.651C303.256,27.158,276.103,0,242.607,0H60.652C27.159,0,0.001,27.158,0.001,60.651v424.562h303.255
		h181.956V272.93L303.256,181.955z M90.979,379.074c0,8.378-6.781,15.163-15.161,15.163H45.491c-8.382,0-15.163-6.785-15.163-15.163
		v-30.326c0-8.378,6.781-15.163,15.163-15.163h30.327c8.38,0,15.161,6.785,15.161,15.163V379.074z M90.979,288.094
		c0,8.382-6.781,15.163-15.161,15.163H45.491c-8.382,0-15.163-6.781-15.163-15.163v-30.322c0-8.382,6.781-15.166,15.163-15.166
		h30.327c8.38,0,15.161,6.784,15.161,15.166V288.094z M90.979,197.119c0,8.38-6.781,15.163-15.161,15.163H45.491
		c-8.382,0-15.163-6.783-15.163-15.163v-30.324c0-8.382,6.781-15.166,15.163-15.166h30.327c8.38,0,15.161,6.784,15.161,15.166
		V197.119z M90.979,106.141c0,8.379-6.781,15.163-15.161,15.163H45.491c-8.382,0-15.163-6.784-15.163-15.163V75.816
		c0-8.382,6.781-15.166,15.163-15.166h30.327c8.38,0,15.161,6.784,15.161,15.166V106.141z M181.956,379.074
		c0,8.378-6.781,15.163-15.161,15.163h-30.329c-8.38,0-15.161-6.785-15.161-15.163v-30.326c0-8.378,6.781-15.163,15.161-15.163
		h30.329c8.379,0,15.161,6.785,15.161,15.163V379.074z M181.956,288.094c0,8.382-6.781,15.163-15.161,15.163h-30.329
		c-8.38,0-15.161-6.781-15.161-15.163v-30.322c0-8.382,6.781-15.166,15.161-15.166h30.329c8.379,0,15.161,6.784,15.161,15.166
		V288.094z M181.956,197.119c0,8.38-6.781,15.163-15.161,15.163h-30.329c-8.38,0-15.161-6.783-15.161-15.163v-30.324
		c0-8.382,6.781-15.166,15.161-15.166h30.329c8.379,0,15.161,6.784,15.161,15.166V197.119z M181.956,106.141
		c0,8.379-6.781,15.163-15.161,15.163h-30.329c-8.38,0-15.161-6.784-15.161-15.163V75.816c0-8.382,6.781-15.166,15.161-15.166
		h30.329c8.379,0,15.161,6.784,15.161,15.166V106.141z M272.934,379.074c0,8.378-6.785,15.163-15.163,15.163h-30.327
		c-8.379,0-15.161-6.785-15.161-15.163v-30.326c0-8.378,6.781-15.163,15.161-15.163h30.327c8.378,0,15.163,6.785,15.163,15.163
		V379.074z M272.934,288.094c0,8.382-6.785,15.163-15.163,15.163h-30.327c-8.379,0-15.161-6.781-15.161-15.163v-30.322
		c0-8.382,6.781-15.166,15.161-15.166h30.327c8.378,0,15.163,6.784,15.163,15.166V288.094z M272.934,197.119
		c0,8.38-6.785,15.163-15.163,15.163h-30.327c-8.379,0-15.161-6.783-15.161-15.163v-30.324c0-8.382,6.781-15.166,15.161-15.166
		h30.327c8.378,0,15.163,6.784,15.163,15.166V197.119z M272.934,106.141c0,8.379-6.785,15.163-15.163,15.163h-30.327
		c-8.379,0-15.161-6.784-15.161-15.163V75.816c0-8.382,6.781-15.166,15.161-15.166h30.327c8.378,0,15.163,6.784,15.163,15.166
		V106.141z M424.562,454.886h-90.976V348.748c0-25.114,20.372-45.49,45.49-45.49c25.109,0,45.485,20.376,45.485,45.49V454.886z"/>
</g>
<g>
</g>
<g>
</g>
<g>
</g>
<g>
</g>
<g>
</g>
<g>
</g>
<g>
</g>
<g>
</g>
<g>
</g>
<g>
</g>
<g>
</g>
<g>
</g>
<g>
</g>
<g>
</g>
<g>
</g>
</svg>
