<?xml version="1.0" encoding="iso-8859-1"?>
<!-- Generator: Adobe Illustrator 16.0.0, SVG Export Plug-In . SVG Version: 6.00 Build 0)  -->
<!DOCTYPE svg PUBLIC "-//W3C//DTD SVG 1.1//EN" "http://www.w3.org/Graphics/SVG/1.1/DTD/svg11.dtd">
<svg version="1.1" id="Capa_1" xmlns="http://www.w3.org/2000/svg" xmlns:xlink="http://www.w3.org/1999/xlink" x="0px" y="0px"
	 width="485.213px" height="485.212px" viewBox="0 0 485.213 485.212" style="enable-background:new 0 0 485.213 485.212;"
	 xml:space="preserve">
<g>
	<path d="M424.562,424.559v-30.322h-30.326V212.282h30.326v-30.327H60.652v30.327h30.327v181.955H60.652v30.322
		c-33.493,0-60.651,27.158-60.651,60.653h485.211C485.212,451.717,458.054,424.559,424.562,424.559z M363.909,212.282v181.955
		h-30.322V212.282H363.909z M272.934,212.282v181.955h-60.65V212.282H272.934z M121.305,212.282h30.324v181.955h-30.324V212.282z
		 M424.562,151.628H60.652C76.763,63.794,153.305,0,242.607,0C331.897,0,408.447,63.794,424.562,151.628z"/>
</g>
<g>
</g>
<g>
</g>
<g>
</g>
<g>
</g>
<g>
</g>
<g>
</g>
<g>
</g>
<g>
</g>
<g>
</g>
<g>
</g>
<g>
</g>
<g>
</g>
<g>
</g>
<g>
</g>
<g>
</g>
</svg>
