<?xml version="1.0" encoding="iso-8859-1"?>
<!-- Generator: Adobe Illustrator 16.0.0, SVG Export Plug-In . SVG Version: 6.00 Build 0)  -->
<!DOCTYPE svg PUBLIC "-//W3C//DTD SVG 1.1//EN" "http://www.w3.org/Graphics/SVG/1.1/DTD/svg11.dtd">
<svg version="1.1" id="Capa_1" xmlns="http://www.w3.org/2000/svg" xmlns:xlink="http://www.w3.org/1999/xlink" x="0px" y="0px"
	 width="485.212px" height="485.212px" viewBox="0 0 485.212 485.212" style="enable-background:new 0 0 485.212 485.212;"
	 xml:space="preserve">
<g>
	<path d="M288.095,242.606v-90.978h30.322l-60.648-60.651V60.651h30.326V30.327h-30.326V0h-30.327v30.327h-30.327v30.324h30.327
		v30.327l-60.653,60.651h30.327v90.978l-151.626,121.3h60.651v121.307h90.976v-75.816c0-25.108,20.36-45.49,45.49-45.49
		c25.118,0,45.489,20.382,45.489,45.49v75.816h90.976V363.906h60.653L288.095,242.606z M257.769,212.282h-30.327v-45.487
		c0-8.382,6.781-15.166,15.164-15.166c8.382,0,15.163,6.784,15.163,15.166V212.282z"/>
</g>
<g>
</g>
<g>
</g>
<g>
</g>
<g>
</g>
<g>
</g>
<g>
</g>
<g>
</g>
<g>
</g>
<g>
</g>
<g>
</g>
<g>
</g>
<g>
</g>
<g>
</g>
<g>
</g>
<g>
</g>
</svg>
