<?xml version="1.0" encoding="iso-8859-1"?>
<!-- Generator: Adobe Illustrator 16.0.0, SVG Export Plug-In . SVG Version: 6.00 Build 0)  -->
<!DOCTYPE svg PUBLIC "-//W3C//DTD SVG 1.1//EN" "http://www.w3.org/Graphics/SVG/1.1/DTD/svg11.dtd">
<svg version="1.1" id="Capa_1" xmlns="http://www.w3.org/2000/svg" xmlns:xlink="http://www.w3.org/1999/xlink" x="0px" y="0px"
	 width="502.188px" height="502.188px" viewBox="0 0 502.188 502.188" style="enable-background:new 0 0 502.188 502.188;"
	 xml:space="preserve">
<g>
	<path d="M254.11,214.188L323.595,75.25L436.438,0l17.75,26.625l-105.781,70.5l-58.531,117.062H254.11z M361.282,142.907
		l-14.438,28.906c13.312,7.594,21.156,16.625,21.156,26.375c0,23.531-45.189,43-104.734,47.125L234,293.188v-47.219
		c-1.875-0.031-3.703-0.156-5.563-0.219l-32.438,102.438V243.094c-48.922-6.75-84-24.219-84-44.906c0-26.5,57.313-48,128-48
		c3.484,0,6.75,0.281,10.156,0.375l15.75-31.5c-8.5-0.5-17.094-0.875-25.906-0.875c-106.031,0-192,36.281-192,160
		s85.969,224,192,224c106.031,0,192-100.281,192-224C432.001,208.157,404.438,166.188,361.282,142.907z"/>
</g>
<g>
</g>
<g>
</g>
<g>
</g>
<g>
</g>
<g>
</g>
<g>
</g>
<g>
</g>
<g>
</g>
<g>
</g>
<g>
</g>
<g>
</g>
<g>
</g>
<g>
</g>
<g>
</g>
<g>
</g>
</svg>
