<?xml version="1.0" encoding="iso-8859-1"?>
<!-- Generator: Adobe Illustrator 16.0.0, SVG Export Plug-In . SVG Version: 6.00 Build 0)  -->
<!DOCTYPE svg PUBLIC "-//W3C//DTD SVG 1.1//EN" "http://www.w3.org/Graphics/SVG/1.1/DTD/svg11.dtd">
<svg version="1.1" id="Capa_1" xmlns="http://www.w3.org/2000/svg" xmlns:xlink="http://www.w3.org/1999/xlink" x="0px" y="0px"
	 width="485.212px" height="485.212px" viewBox="0 0 485.212 485.212" style="enable-background:new 0 0 485.212 485.212;"
	 xml:space="preserve">
<g>
	<path d="M242.605,454.886l-43.327-138.654L60.649,272.93l138.628-43.324l43.327-138.628l43.301,138.628L424.56,272.93
		l-138.654,43.302L242.605,454.886z M304.061,211.451l15.037,4.679l36.1-55.791l-55.818,36.128L304.061,211.451z M181.123,211.451
		l4.681-14.986l-55.795-36.13l36.13,55.795L181.123,211.451z M304.061,334.382l-4.682,15.019l55.818,36.128l-36.127-55.823
		L304.061,334.382z M181.123,334.382l-14.984-4.677l-36.132,55.823l55.795-36.104L181.123,334.382z M454.887,272.93
		c0,117.219-95.064,212.282-212.282,212.282c-117.244,0-212.28-95.063-212.28-212.282c0-117.244,95.036-212.279,212.28-212.279
		C359.823,60.651,454.887,155.687,454.887,272.93z M424.56,272.93c0-100.335-81.618-181.953-181.955-181.953
		c-100.335,0-181.956,81.618-181.956,181.953c0,100.338,81.62,181.956,181.956,181.956
		C342.942,454.886,424.56,373.268,424.56,272.93z M272.931,30.327C272.931,13.562,259.369,0,242.605,0
		c-16.762,0-30.324,13.567-30.324,30.327c0,16.762,13.562,30.324,30.324,30.324C259.369,60.651,272.931,47.088,272.931,30.327z"/>
</g>
<g>
</g>
<g>
</g>
<g>
</g>
<g>
</g>
<g>
</g>
<g>
</g>
<g>
</g>
<g>
</g>
<g>
</g>
<g>
</g>
<g>
</g>
<g>
</g>
<g>
</g>
<g>
</g>
<g>
</g>
</svg>
