<?xml version="1.0" encoding="iso-8859-1"?>
<!-- Generator: Adobe Illustrator 16.0.0, SVG Export Plug-In . SVG Version: 6.00 Build 0)  -->
<!DOCTYPE svg PUBLIC "-//W3C//DTD SVG 1.1//EN" "http://www.w3.org/Graphics/SVG/1.1/DTD/svg11.dtd">
<svg version="1.1" id="Capa_1" xmlns="http://www.w3.org/2000/svg" xmlns:xlink="http://www.w3.org/1999/xlink" x="0px" y="0px"
	 width="512px" height="512px" viewBox="0 0 512 512" style="enable-background:new 0 0 512 512;" xml:space="preserve">
<g>
	<path d="M288,34.375V0h-64v34.375C106.625,50.063,16,150.313,16,272c0,132.562,107.438,240,240,240c132.562,0,240-107.438,240-240
		C496,150.313,405.375,50.063,288,34.375z M272,479.188V448h-32v31.188C138.063,471.375,56.625,389.906,48.813,288H80v-32H48.813
		C57.031,148.781,146.719,64,256,64s198.969,84.781,207.188,192H432v32h31.188C455.375,389.906,373.906,471.375,272,479.188z
		 M239.688,160H224V80h20.406c0,0,23.438,44.375,28.094,55.438V80H288v80h-18.375c0,0-26.125-49.75-29.938-59.125V101L239.688,160
		L239.688,160z M286.125,281.625l71.688,92.188l-92.188-71.688c-11,3.531-23.5,1.25-32.25-7.5s-11-21.25-7.5-32.25l-71.688-92.188
		l92.188,71.688c11-3.5,23.5-1.25,32.25,7.5S289.656,270.625,286.125,281.625z"/>
</g>
<g>
</g>
<g>
</g>
<g>
</g>
<g>
</g>
<g>
</g>
<g>
</g>
<g>
</g>
<g>
</g>
<g>
</g>
<g>
</g>
<g>
</g>
<g>
</g>
<g>
</g>
<g>
</g>
<g>
</g>
</svg>
