<?xml version="1.0" encoding="iso-8859-1"?>
<!-- Generator: Adobe Illustrator 16.0.0, SVG Export Plug-In . SVG Version: 6.00 Build 0)  -->
<!DOCTYPE svg PUBLIC "-//W3C//DTD SVG 1.1//EN" "http://www.w3.org/Graphics/SVG/1.1/DTD/svg11.dtd">
<svg version="1.1" id="Capa_1" xmlns="http://www.w3.org/2000/svg" xmlns:xlink="http://www.w3.org/1999/xlink" x="0px" y="0px"
	 width="512px" height="512px" viewBox="0 0 512 512" style="enable-background:new 0 0 512 512;" xml:space="preserve">
<g>
	<path d="M248.156,225.531l-26.094-26.094l147.063-56.563l-56.562,147.063l-26.095-26.095c2.688-10.594,0.438-22.188-7.844-30.469
		S258.75,222.813,248.156,225.531z M233.375,278.625c-8.281-8.281-10.563-19.875-7.844-30.469l-26.094-26.094l-56.563,147.063
		l147.063-56.562l-26.095-26.095C253.25,289.188,241.656,286.906,233.375,278.625z M512,256c0,141.375-114.625,256-256,256
		S0,397.375,0,256S114.625,0,256,0S512,114.625,512,256z M240,32c0,8.844,7.156,16,16,16s16-7.156,16-16s-7.156-16-16-16
		S240,23.156,240,32z M48,256c0-8.844-7.156-16-16-16s-16,7.156-16,16s7.156,16,16,16S48,264.844,48,256z M272,480
		c0-8.844-7.156-16-16-16s-16,7.156-16,16s7.156,16,16,16S272,488.844,272,480z M448,256c0-105.875-86.125-192-192-192
		S64,150.125,64,256s86.125,192,192,192S448,361.875,448,256z M496,256c0-8.844-7.156-16-16-16s-16,7.156-16,16s7.156,16,16,16
		S496,264.844,496,256z"/>
</g>
<g>
</g>
<g>
</g>
<g>
</g>
<g>
</g>
<g>
</g>
<g>
</g>
<g>
</g>
<g>
</g>
<g>
</g>
<g>
</g>
<g>
</g>
<g>
</g>
<g>
</g>
<g>
</g>
<g>
</g>
</svg>
