<?xml version="1.0" encoding="iso-8859-1"?>
<!-- Generator: Adobe Illustrator 16.0.0, SVG Export Plug-In . SVG Version: 6.00 Build 0)  -->
<!DOCTYPE svg PUBLIC "-//W3C//DTD SVG 1.1//EN" "http://www.w3.org/Graphics/SVG/1.1/DTD/svg11.dtd">
<svg version="1.1" id="Capa_1" xmlns="http://www.w3.org/2000/svg" xmlns:xlink="http://www.w3.org/1999/xlink" x="0px" y="0px"
	 width="485.212px" height="485.212px" viewBox="0 0 485.212 485.212" style="enable-background:new 0 0 485.212 485.212;"
	 xml:space="preserve">
<g>
	<path d="M242.607,30.327c8.35,0,15.163,6.812,15.163,15.163c0,8.352-6.813,15.161-15.163,15.161s-15.164-6.809-15.164-15.161
		C227.444,37.138,234.258,30.327,242.607,30.327 M242.607,0c-25.114,0-45.49,20.376-45.49,45.49
		c0,25.114,20.376,45.488,45.49,45.488c25.113,0,45.49-20.374,45.49-45.488C288.098,20.376,267.721,0,242.607,0L242.607,0z
		 M242.607,121.304c91.955,0,166.792,74.837,166.792,166.79c0,91.955-74.837,166.792-166.792,166.792
		c-91.953,0-166.79-74.837-166.79-166.792C75.817,196.141,150.654,121.304,242.607,121.304 M242.607,90.978
		c-108.864,0-197.117,88.254-197.117,197.117c0,108.869,88.252,197.118,197.117,197.118s197.114-88.249,197.114-197.118
		C439.722,179.232,351.472,90.978,242.607,90.978L242.607,90.978z M339.09,191.609l-139.366,53.604L146.12,384.582l139.368-53.602
		L339.09,191.609z M221.167,309.54c-11.845-11.85-11.845-31.041,0-42.887c11.845-11.845,31.031-11.845,42.881,0
		c11.845,11.846,11.845,31.037,0,42.887C252.198,321.384,233.012,321.384,221.167,309.54z"/>
</g>
<g>
</g>
<g>
</g>
<g>
</g>
<g>
</g>
<g>
</g>
<g>
</g>
<g>
</g>
<g>
</g>
<g>
</g>
<g>
</g>
<g>
</g>
<g>
</g>
<g>
</g>
<g>
</g>
<g>
</g>
</svg>
