<?xml version="1.0" encoding="iso-8859-1"?>
<!-- Generator: Adobe Illustrator 16.0.0, SVG Export Plug-In . SVG Version: 6.00 Build 0)  -->
<!DOCTYPE svg PUBLIC "-//W3C//DTD SVG 1.1//EN" "http://www.w3.org/Graphics/SVG/1.1/DTD/svg11.dtd">
<svg version="1.1" id="Capa_1" xmlns="http://www.w3.org/2000/svg" xmlns:xlink="http://www.w3.org/1999/xlink" x="0px" y="0px"
	 width="485.213px" height="485.212px" viewBox="0 0 485.213 485.212" style="enable-background:new 0 0 485.213 485.212;"
	 xml:space="preserve">
<g>
	<path d="M454.89,272.93L424.562,0h-60.653l-30.322,272.93h-30.331v-60.648l-60.648,60.648v-60.648l-60.651,60.648v-60.648
		l-60.651,60.648v-60.648L60.652,272.93v-60.648L0.001,272.93v212.282h485.211V272.93H454.89z M90.979,394.237H30.328v-30.331
		h60.651V394.237z M90.979,333.584H30.328v-30.327h60.651V333.584z M181.956,394.237h-60.651v-30.331h60.651V394.237z
		 M181.956,333.584h-60.651v-30.327h60.651V333.584z M272.934,394.237h-60.65v-30.331h60.65V394.237z M272.934,333.584h-60.65
		v-30.327h60.65V333.584z"/>
</g>
<g>
</g>
<g>
</g>
<g>
</g>
<g>
</g>
<g>
</g>
<g>
</g>
<g>
</g>
<g>
</g>
<g>
</g>
<g>
</g>
<g>
</g>
<g>
</g>
<g>
</g>
<g>
</g>
<g>
</g>
</svg>
