<?xml version="1.0" encoding="iso-8859-1"?>
<!-- Generator: Adobe Illustrator 16.0.0, SVG Export Plug-In . SVG Version: 6.00 Build 0)  -->
<!DOCTYPE svg PUBLIC "-//W3C//DTD SVG 1.1//EN" "http://www.w3.org/Graphics/SVG/1.1/DTD/svg11.dtd">
<svg version="1.1" id="Capa_1" xmlns="http://www.w3.org/2000/svg" xmlns:xlink="http://www.w3.org/1999/xlink" x="0px" y="0px"
	 width="512.004px" height="512.004px" viewBox="0 0 512.004 512.004" style="enable-background:new 0 0 512.004 512.004;"
	 xml:space="preserve">
<g>
	<path d="M284.759,221.754c24.375-6.375,49-19.875,70-40.875c49.969-49.938,60.094-120.906,22.625-158.375
		c-28.938-28.938-77.625-29.25-121.375-5.062c-43.75-24.188-92.469-23.844-121.375,5.062c-37.5,37.5-27.344,108.438,22.625,158.375
		c21,21,45.625,34.5,69.969,40.875c2.906,0.875,24.844,4,28.781,3.938C259.947,225.754,281.884,222.629,284.759,221.754z"/>
	<path d="M256.134,257.692h-0.625c-4.938,0-21.625-2.125-31.5-4v258.312l64-64v-194.25
		C278.822,255.473,261.447,257.692,256.134,257.692z"/>
</g>
<g>
</g>
<g>
</g>
<g>
</g>
<g>
</g>
<g>
</g>
<g>
</g>
<g>
</g>
<g>
</g>
<g>
</g>
<g>
</g>
<g>
</g>
<g>
</g>
<g>
</g>
<g>
</g>
<g>
</g>
</svg>
