<?xml version="1.0" encoding="iso-8859-1"?>
<!-- Generator: Adobe Illustrator 16.0.0, SVG Export Plug-In . SVG Version: 6.00 Build 0)  -->
<!DOCTYPE svg PUBLIC "-//W3C//DTD SVG 1.1//EN" "http://www.w3.org/Graphics/SVG/1.1/DTD/svg11.dtd">
<svg version="1.1" id="Capa_1" xmlns="http://www.w3.org/2000/svg" xmlns:xlink="http://www.w3.org/1999/xlink" x="0px" y="0px"
	 width="485.213px" height="485.214px" viewBox="0 0 485.213 485.214" style="enable-background:new 0 0 485.213 485.214;"
	 xml:space="preserve">
<g>
	<path d="M476.32,221.166l-51.767-51.77V30.327h-60.654v78.421L264.042,8.886c-11.845-11.847-31.041-11.847-42.886,0L8.879,221.166
		c-8.679,8.676-11.255,21.707-6.576,33.05c4.679,11.313,15.759,18.715,28.014,18.715h30.327l60.651,212.282h242.604l60.654-212.282
		h30.326c12.266,0,23.336-7.401,28.017-18.715C487.605,242.873,485,229.842,476.32,221.166z M242.6,424.56
		c-41.875,0-75.814-33.938-75.814-75.812c0-41.878,33.939-75.817,75.814-75.817c41.904,0,75.815,33.939,75.815,75.817
		C318.415,390.621,284.503,424.56,242.6,424.56z"/>
</g>
<g>
</g>
<g>
</g>
<g>
</g>
<g>
</g>
<g>
</g>
<g>
</g>
<g>
</g>
<g>
</g>
<g>
</g>
<g>
</g>
<g>
</g>
<g>
</g>
<g>
</g>
<g>
</g>
<g>
</g>
</svg>
