<?xml version="1.0" encoding="iso-8859-1"?>
<!-- Generator: Adobe Illustrator 16.0.0, SVG Export Plug-In . SVG Version: 6.00 Build 0)  -->
<!DOCTYPE svg PUBLIC "-//W3C//DTD SVG 1.1//EN" "http://www.w3.org/Graphics/SVG/1.1/DTD/svg11.dtd">
<svg version="1.1" id="Capa_1" xmlns="http://www.w3.org/2000/svg" xmlns:xlink="http://www.w3.org/1999/xlink" x="0px" y="0px"
	 width="512px" height="512px" viewBox="0 0 512 512" style="enable-background:new 0 0 512 512;" xml:space="preserve">
<g>
	<g>
		<path d="M502.625,287.792L256,41.167L9.375,287.792c-12.5,12.5-12.5,32.75,0,45.25s32.75,12.5,45.25,0L64,323.667v114.75v32.416
			h32h320h32v-32.416v-114.75l9.375,9.375c6.25,6.25,14.438,9.375,22.625,9.375s16.375-3.125,22.625-9.375
			C515.125,320.542,515.125,300.292,502.625,287.792z M416,438.833H224v-128h-64v128H96V291.667l160-160l160,160V438.833z"/>
		<rect x="288" y="310.833" width="64" height="64"/>
	</g>
	<rect x="288" y="310.833" width="64" height="64"/>
	<polygon points="160,91.917 160,54.833 96,54.833 96,155.917 	"/>
</g>
<g>
</g>
<g>
</g>
<g>
</g>
<g>
</g>
<g>
</g>
<g>
</g>
<g>
</g>
<g>
</g>
<g>
</g>
<g>
</g>
<g>
</g>
<g>
</g>
<g>
</g>
<g>
</g>
<g>
</g>
</svg>
