<?xml version="1.0" encoding="iso-8859-1"?>
<!-- Generator: Adobe Illustrator 16.0.0, SVG Export Plug-In . SVG Version: 6.00 Build 0)  -->
<!DOCTYPE svg PUBLIC "-//W3C//DTD SVG 1.1//EN" "http://www.w3.org/Graphics/SVG/1.1/DTD/svg11.dtd">
<svg version="1.1" id="Capa_1" xmlns="http://www.w3.org/2000/svg" xmlns:xlink="http://www.w3.org/1999/xlink" x="0px" y="0px"
	 width="485.213px" height="485.212px" viewBox="0 0 485.213 485.212" style="enable-background:new 0 0 485.213 485.212;"
	 xml:space="preserve">
<g>
	<path d="M303.255,0h-121.3c-50.243,0-90.978,40.75-90.978,90.978v121.304c0,50.26,40.734,90.976,90.978,90.976l60.651,181.955
		l60.648-181.955c50.26,0,90.98-40.716,90.98-90.976V90.978C394.235,40.75,353.515,0,303.255,0z M333.586,212.282
		c0,16.729-13.595,30.324-30.331,30.324h-121.3c-16.717,0-30.327-13.595-30.327-30.324V90.978c0-16.701,13.609-30.327,30.327-30.327
		h121.3c16.736,0,30.331,13.625,30.331,30.327V212.282z"/>
</g>
<g>
</g>
<g>
</g>
<g>
</g>
<g>
</g>
<g>
</g>
<g>
</g>
<g>
</g>
<g>
</g>
<g>
</g>
<g>
</g>
<g>
</g>
<g>
</g>
<g>
</g>
<g>
</g>
<g>
</g>
</svg>
