<?xml version="1.0" encoding="iso-8859-1"?>
<!-- Generator: Adobe Illustrator 16.0.0, SVG Export Plug-In . SVG Version: 6.00 Build 0)  -->
<!DOCTYPE svg PUBLIC "-//W3C//DTD SVG 1.1//EN" "http://www.w3.org/Graphics/SVG/1.1/DTD/svg11.dtd">
<svg version="1.1" id="Capa_1" xmlns="http://www.w3.org/2000/svg" xmlns:xlink="http://www.w3.org/1999/xlink" x="0px" y="0px"
	 width="485.213px" height="485.212px" viewBox="0 0 485.213 485.212" style="enable-background:new 0 0 485.213 485.212;"
	 xml:space="preserve">
<g>
	<path d="M394.235,424.559c0,52.775-95.008,60.653-151.629,60.653c-56.624,0-151.629-7.878-151.629-60.653
		c0-39.385,52.967-53.778,103.371-58.516l8.573,30c-47.398,4.116-81.618,15.252-81.618,28.516
		c0,16.765,54.313,30.327,121.302,30.327c67.015,0,121.302-13.562,121.302-30.327c0-13.264-34.205-24.399-81.617-28.516l8.587-30
		C341.282,370.781,394.235,385.174,394.235,424.559z M297.986,230.703l-55.38,193.856l-56.787-198.743
		c-36.146-21-60.728-59.704-60.728-104.512C125.092,54.315,179.409,0,246.396,0c66.99,0,121.302,54.315,121.302,121.304
		C367.698,169.755,339.089,211.274,297.986,230.703z M303.255,121.304c0-33.493-27.153-60.653-60.648-60.653
		c-33.496,0-60.651,27.16-60.651,60.653c0,33.496,27.156,60.651,60.651,60.651C276.102,181.955,303.255,154.8,303.255,121.304z"/>
</g>
<g>
</g>
<g>
</g>
<g>
</g>
<g>
</g>
<g>
</g>
<g>
</g>
<g>
</g>
<g>
</g>
<g>
</g>
<g>
</g>
<g>
</g>
<g>
</g>
<g>
</g>
<g>
</g>
<g>
</g>
</svg>
