<?xml version="1.0" encoding="iso-8859-1"?>
<!-- Generator: Adobe Illustrator 16.0.0, SVG Export Plug-In . SVG Version: 6.00 Build 0)  -->
<!DOCTYPE svg PUBLIC "-//W3C//DTD SVG 1.1//EN" "http://www.w3.org/Graphics/SVG/1.1/DTD/svg11.dtd">
<svg version="1.1" id="Capa_1" xmlns="http://www.w3.org/2000/svg" xmlns:xlink="http://www.w3.org/1999/xlink" x="0px" y="0px"
	 width="512px" height="512px" viewBox="0 0 512 512" style="enable-background:new 0 0 512 512;" xml:space="preserve">
<g>
	<path d="M352,96c0-53-42.969-96-96-96c-53,0-96,43-96,96c0,41.75,26.813,76.875,64,90.125V384l64-64V186.125
		C325.219,172.906,352,137.75,352,96z M192,64c0-17.688,14.313-32,32-32s32,14.313,32,32s-14.313,32-32,32S192,81.688,192,64z
		 M384,288l-64-32v35.781l48,24V416v52.219L256,416l-112,52.219V416V315.781l48-24V256l-64,32L0,224v224l128,64l128-64l128,64
		l128-64V224L384,288z M112,468.219l-80-40V275.781l80,40V468.219z M480,428.219l-80,40V315.781l80-40V428.219z"/>
</g>
<g>
</g>
<g>
</g>
<g>
</g>
<g>
</g>
<g>
</g>
<g>
</g>
<g>
</g>
<g>
</g>
<g>
</g>
<g>
</g>
<g>
</g>
<g>
</g>
<g>
</g>
<g>
</g>
<g>
</g>
</svg>
