<?xml version="1.0" encoding="iso-8859-1"?>
<!-- Generator: Adobe Illustrator 16.0.0, SVG Export Plug-In . SVG Version: 6.00 Build 0)  -->
<!DOCTYPE svg PUBLIC "-//W3C//DTD SVG 1.1//EN" "http://www.w3.org/Graphics/SVG/1.1/DTD/svg11.dtd">
<svg version="1.1" id="Capa_1" xmlns="http://www.w3.org/2000/svg" xmlns:xlink="http://www.w3.org/1999/xlink" x="0px" y="0px"
	 width="485.215px" height="485.215px" viewBox="0 0 485.215 485.215" style="enable-background:new 0 0 485.215 485.215;"
	 xml:space="preserve">
<g>
	<path d="M248.958,406.438c-1.438-46.587-12.762-185.334-95.391-250.902c-15.579,23.039-50.108,86.269-41.919,187.136
		c-11.266-44.511-38.172-115.083-19.263-206.712C63.612,142.505,11.875,156.898,0,177.926c5.598-28.49,49.709-90.296,96.825-102.823
		c-0.117-0.088-0.235-0.182-0.354-0.238c0.103-0.122,0.222-0.177,0.327-0.299c-8.958-19.574-29.87-59.526-53.174-64.469
		c22.596-1.157,68.085,11.28,95.257,32.546c82.372-51.648,162.717-41.64,211.232-42.2c-67.052,14.657-111.121,46.463-138.32,74.3
		c76.836,18.127,132.155,60.919,170.36,84.645c-81.146-32.49-144.804-28.285-183.923-19.135
		c33.92,33.554,80.033,128.944,113.146,253.831c2.366-0.089,4.671-0.443,7.042-0.443c67.584,0,130.52,34.531,166.797,91.568H151.628
		C174.98,448.516,209.407,421.303,248.958,406.438z"/>
</g>
<g>
</g>
<g>
</g>
<g>
</g>
<g>
</g>
<g>
</g>
<g>
</g>
<g>
</g>
<g>
</g>
<g>
</g>
<g>
</g>
<g>
</g>
<g>
</g>
<g>
</g>
<g>
</g>
<g>
</g>
</svg>
