<?xml version="1.0" encoding="iso-8859-1"?>
<!-- Generator: Adobe Illustrator 16.0.0, SVG Export Plug-In . SVG Version: 6.00 Build 0)  -->
<!DOCTYPE svg PUBLIC "-//W3C//DTD SVG 1.1//EN" "http://www.w3.org/Graphics/SVG/1.1/DTD/svg11.dtd">
<svg version="1.1" id="Capa_1" xmlns="http://www.w3.org/2000/svg" xmlns:xlink="http://www.w3.org/1999/xlink" x="0px" y="0px"
	 width="485.212px" height="485.212px" viewBox="0 0 485.212 485.212" style="enable-background:new 0 0 485.212 485.212;"
	 xml:space="preserve">
<g>
	<path d="M30.329,485.212c-7.759,0-15.521-2.963-21.443-8.886c-11.845-11.845-11.845-31.031,0-42.877l90.978-90.979
		c5.687-5.689,13.401-8.886,21.443-8.886h204.106l107.622-112.003c11.607-12.055,30.766-12.44,42.882-0.829
		c12.055,11.607,12.438,30.798,0.825,42.877l-116.56,121.307c-5.713,5.927-13.596,9.301-21.856,9.301H133.861l-82.091,82.09
		C45.847,482.25,38.09,485.212,30.329,485.212z M401.108,386.088l-19.07,19.845c-8.116,8.41-18.542,14.099-29.738,16.792
		l50.26,53.014c5.955,6.31,13.982,9.474,22.005,9.474c7.491,0,14.981-2.753,20.848-8.321c12.172-11.522,12.676-30.709,1.153-42.853
		L401.108,386.088z M125.094,56.863c-37.696,0-68.233,30.56-68.233,68.23s30.537,68.235,68.233,68.235
		c37.7,0,68.235-30.564,68.235-68.235S162.794,56.863,125.094,56.863z M36.65,52.714c-4.443-4.44-4.455-11.609,0-16.05
		c4.446-4.504,11.64-4.443,16.081,0l16.883,16.878c-6.044,4.651-11.418,10.013-16.085,16.052L36.65,52.714z M35.274,136.467h-23.9
		c-6.277,0-11.371-5.066-11.371-11.374s5.094-11.371,11.371-11.371h23.9c-0.488,3.792-1.153,7.462-1.153,11.371
		C34.121,129.005,34.786,132.675,35.274,136.467z M180.595,53.543l16.883-16.878c4.438-4.443,11.607-4.504,16.05,0
		c4.44,4.44,4.44,11.609,0,16.05l-16.881,16.881C191.999,63.556,186.636,58.194,180.595,53.543z M113.725,35.271V11.374
		c0-6.28,5.063-11.374,11.369-11.374c6.31,0,11.374,5.094,11.374,11.374v23.898c-3.773-0.504-7.493-1.153-11.374-1.153
		C121.218,34.119,117.5,34.767,113.725,35.271z M213.526,197.473c4.443,4.443,4.504,11.609,0,16.05
		c-4.441,4.503-11.609,4.503-16.053,0l-16.878-16.878c6.041-4.648,11.404-10.011,16.052-16.053L213.526,197.473z M250.188,125.094
		c0,6.308-5.092,11.374-11.371,11.374h-23.898c0.504-3.792,1.153-7.462,1.153-11.374c0-3.909-0.649-7.579-1.153-11.371h23.898
		C245.096,113.723,250.188,118.786,250.188,125.094z M69.614,196.645l-16.883,16.878c-4.443,4.503-11.64,4.503-16.081,0
		c-4.459-4.441-4.459-11.607,0-16.05l16.878-16.881C58.196,186.634,63.57,191.997,69.614,196.645z M136.468,214.917v23.902
		c0,6.305-5.064,11.369-11.374,11.369c-6.306,0-11.369-5.064-11.369-11.369v-23.902c3.775,0.504,7.491,1.155,11.369,1.155
		C128.975,216.072,132.694,215.42,136.468,214.917z"/>
</g>
<g>
</g>
<g>
</g>
<g>
</g>
<g>
</g>
<g>
</g>
<g>
</g>
<g>
</g>
<g>
</g>
<g>
</g>
<g>
</g>
<g>
</g>
<g>
</g>
<g>
</g>
<g>
</g>
<g>
</g>
</svg>
