<?xml version="1.0" encoding="iso-8859-1"?>
<!-- Generator: Adobe Illustrator 16.0.0, SVG Export Plug-In . SVG Version: 6.00 Build 0)  -->
<!DOCTYPE svg PUBLIC "-//W3C//DTD SVG 1.1//EN" "http://www.w3.org/Graphics/SVG/1.1/DTD/svg11.dtd">
<svg version="1.1" id="Capa_1" xmlns="http://www.w3.org/2000/svg" xmlns:xlink="http://www.w3.org/1999/xlink" x="0px" y="0px"
	 width="485.213px" height="485.213px" viewBox="0 0 485.213 485.213" style="enable-background:new 0 0 485.213 485.213;"
	 xml:space="preserve">
<g>
	<path d="M151.628,94.772c0,25.114-20.362,45.485-45.488,45.485c-25.13,0-45.49-20.372-45.49-45.485
		c0-25.113,20.36-45.49,45.49-45.49C131.269,49.282,151.628,69.659,151.628,94.772z M58.432,57.783
		c3.106-4.028,6.692-7.61,10.72-10.72L57.899,35.808c-2.961-2.961-7.761-2.989-10.723,0c-2.978,2.961-2.961,7.762,0,10.723
		L58.432,57.783z M45.49,94.772c0-2.606,0.443-5.066,0.77-7.584H30.326c-4.193,0-7.582,3.376-7.582,7.584
		c0,4.203,3.388,7.58,7.582,7.58H46.26C45.933,99.836,45.49,97.379,45.49,94.772z M153.848,57.783l11.255-11.252
		c2.961-2.961,2.961-7.761,0-10.723c-2.961-2.989-7.759-2.961-10.723,0l-11.252,11.255
		C147.155,50.173,150.739,53.755,153.848,57.783z M106.141,34.121c2.59,0,5.064,0.443,7.582,0.77V18.956
		c0-4.175-3.379-7.58-7.582-7.58c-4.207,0-7.584,3.405-7.584,7.58v15.936C101.075,34.564,103.548,34.121,106.141,34.121z
		 M153.848,131.759c-3.108,4.03-6.692,7.612-10.72,10.723l11.252,11.252c2.963,2.989,7.761,2.989,10.723,0
		c2.989-2.961,2.961-7.759,0-10.72L153.848,131.759z M181.953,87.188H166.02c0.327,2.518,0.77,4.978,0.77,7.584
		c0,2.607-0.443,5.064-0.77,7.58h15.933c4.175,0,7.582-3.375,7.582-7.58C189.534,90.564,186.127,87.188,181.953,87.188z
		 M58.432,131.759l-11.255,11.255c-2.978,2.961-2.978,7.759,0,10.72c2.961,2.994,7.762,2.994,10.723,0l11.252-11.252
		C65.124,139.371,61.538,135.789,58.432,131.759z M106.141,155.421c-2.592,0-5.066-0.443-7.584-0.768v15.931
		c0,4.205,3.377,7.58,7.584,7.58c4.205,0,7.582-3.376,7.582-7.58v-15.931C111.205,154.978,108.731,155.421,106.141,155.421z
		 M454.879,352.535H368.02l110.172-132.2c10.715-12.881,8.97-31.983-3.884-42.704c-12.913-10.723-31.983-9.002-42.736,3.851
		L289.039,352.535H30.326C13.579,352.535,0,366.098,0,382.856c0,16.765,13.579,30.332,30.326,30.332h30.325v45.49
		c0,8.372,6.781,15.158,15.161,15.158c8.385,0,15.166-6.786,15.166-15.158v-45.49H394.23v45.49c0,8.372,6.785,15.158,15.163,15.158
		c8.382,0,15.159-6.786,15.159-15.158v-45.49h30.331c16.764,0,30.326-13.567,30.326-30.332
		C485.21,366.098,471.639,352.535,454.879,352.535z"/>
</g>
<g>
</g>
<g>
</g>
<g>
</g>
<g>
</g>
<g>
</g>
<g>
</g>
<g>
</g>
<g>
</g>
<g>
</g>
<g>
</g>
<g>
</g>
<g>
</g>
<g>
</g>
<g>
</g>
<g>
</g>
</svg>
