<?xml version="1.0" encoding="iso-8859-1"?>
<!-- Generator: Adobe Illustrator 16.0.0, SVG Export Plug-In . SVG Version: 6.00 Build 0)  -->
<!DOCTYPE svg PUBLIC "-//W3C//DTD SVG 1.1//EN" "http://www.w3.org/Graphics/SVG/1.1/DTD/svg11.dtd">
<svg version="1.1" id="Capa_1" xmlns="http://www.w3.org/2000/svg" xmlns:xlink="http://www.w3.org/1999/xlink" x="0px" y="0px"
	 width="485.212px" height="485.212px" viewBox="0 0 485.212 485.212" style="enable-background:new 0 0 485.212 485.212;"
	 xml:space="preserve">
<g>
	<path d="M318.416,181.955h-30.322V60.651h-30.326V0H227.44v60.651h-30.327v121.304h-30.327l-30.322,30.327v272.931h212.283V212.282
		L318.416,181.955z M197.114,424.559h-30.327v-30.322h30.327V424.559z M197.114,363.906h-30.327v-30.321h30.327V363.906z
		 M197.114,303.257h-30.327V272.93h30.327V303.257z M197.114,242.606h-30.327v-30.324h30.327V242.606z M257.767,424.559H227.44
		v-30.322h30.327V424.559z M257.767,363.906H227.44v-30.321h30.327V363.906z M257.767,303.257H227.44V272.93h30.327V303.257z
		 M257.767,242.606H227.44v-30.324h30.327V242.606z M257.767,181.955H227.44v-30.327h30.327V181.955z M257.767,121.304H227.44
		V90.978h30.327V121.304z M318.416,424.559h-30.322v-30.322h30.322V424.559z M318.416,363.906h-30.322v-30.321h30.322V363.906z
		 M318.416,303.257h-30.322V272.93h30.322V303.257z M318.416,242.606h-30.322v-30.324h30.322V242.606z"/>
</g>
<g>
</g>
<g>
</g>
<g>
</g>
<g>
</g>
<g>
</g>
<g>
</g>
<g>
</g>
<g>
</g>
<g>
</g>
<g>
</g>
<g>
</g>
<g>
</g>
<g>
</g>
<g>
</g>
<g>
</g>
</svg>
