<?xml version="1.0" encoding="iso-8859-1"?>
<!-- Generator: Adobe Illustrator 16.0.0, SVG Export Plug-In . SVG Version: 6.00 Build 0)  -->
<!DOCTYPE svg PUBLIC "-//W3C//DTD SVG 1.1//EN" "http://www.w3.org/Graphics/SVG/1.1/DTD/svg11.dtd">
<svg version="1.1" id="Capa_1" xmlns="http://www.w3.org/2000/svg" xmlns:xlink="http://www.w3.org/1999/xlink" x="0px" y="0px"
	 width="512px" height="512px" viewBox="0 0 512 512" style="enable-background:new 0 0 512 512;" xml:space="preserve">
<g>
	<path d="M448,448V192l-32-32h-32V96h-64V64h-32V32c0-17.688-14.328-32-32-32s-32,14.313-32,32v32h-32v32h-64v64H96l-32,32v256
		c-35.344,0-64,28.625-64,64h512C512,476.625,483.344,448,448,448z M192,416h-64v-32h64V416z M192,352h-64v-32h64V352z M192,288h-64
		v-32h64V288z M192,224h-64v-32h64V224z M288,416h-64v-32h64V416z M288,352h-64v-32h64V352z M288,288h-64v-32h64V288z M288,224h-64
		v-32h64V224z M384,416h-64v-32h64V416z M384,352h-64v-32h64V352z M384,288h-64v-32h64V288z M384,224h-64v-32h64V224z"/>
</g>
<g>
</g>
<g>
</g>
<g>
</g>
<g>
</g>
<g>
</g>
<g>
</g>
<g>
</g>
<g>
</g>
<g>
</g>
<g>
</g>
<g>
</g>
<g>
</g>
<g>
</g>
<g>
</g>
<g>
</g>
</svg>
